<?xml version="1.0" standalone="no"?>
<!DOCTYPE svg PUBLIC "-//W3C//DTD SVG 20010904//EN"
 "http://www.w3.org/TR/2001/REC-SVG-20010904/DTD/svg10.dtd">
<svg version="1.0" xmlns="http://www.w3.org/2000/svg"
 width="48px" height="48px" viewBox="0 0 500.000000 500.000000"
 preserveAspectRatio="xMidYMid meet">

<g transform="translate(0.000000,500.000000) scale(0.100000,-0.100000)"
fill="#000000" stroke="none">
<path d="M0 2500 l0 -2500 2500 0 2500 0 0 2500 0 2500 -2500 0 -2500 0 0
-2500z m2740 610 l0 -290 60 44 c81 60 146 81 245 80 188 -2 315 -113 372
-326 24 -87 24 -290 0 -378 -56 -209 -184 -340 -360 -370 -117 -21 -229 13
-301 89 -32 33 -46 28 -46 -16 0 -13 -9 -32 -20 -43 -18 -18 -33 -20 -130 -20
l-110 0 0 760 0 760 145 0 145 0 0 -290z m-871 226 c168 -44 283 -139 322
-267 17 -57 21 -88 17 -167 -3 -83 -8 -106 -36 -163 -39 -82 -113 -157 -197
-201 l-64 -33 39 -35 c32 -29 370 -532 388 -578 4 -11 -27 -13 -161 -10 -159
3 -166 4 -191 27 -14 13 -90 128 -168 255 -79 127 -153 241 -165 254 -19 19
-32 22 -103 22 l-80 0 0 -280 0 -280 -150 0 -150 0 0 741 0 741 318 -5 c254
-3 330 -7 381 -21z m1969 -1173 c71 -52 91 -136 52 -212 -57 -113 -233 -113
-290 0 -45 87 -8 191 80 228 38 16 127 7 158 -16z"/>
<path d="M2850 2709 c-25 -11 -60 -34 -77 -52 l-33 -31 0 -236 c0 -233 0 -237
23 -258 35 -33 91 -52 154 -52 157 1 227 108 227 345 -1 208 -65 305 -201 305
-26 0 -68 -10 -93 -21z"/>
<path d="M1478 3125 c-5 -5 -8 -112 -8 -238 l0 -229 133 4 c142 5 179 15 237
65 47 39 70 95 70 172 0 109 -42 172 -140 206 -46 16 -281 32 -292 20z"/>
</g>
</svg>
